<svg width="56" height="63" viewBox="0 0 56 63" fill="none" xmlns="http://www.w3.org/2000/svg">
<path d="M16.4654 4.6V19.256C16.4654 21.816 15.7827 23.8213 14.4174 25.272C13.0734 26.7227 11.068 27.448 8.40138 27.448C5.73471 27.448 3.71871 26.7227 2.35338 25.272C1.00938 23.8213 0.337375 21.816 0.337375 19.256V4.6H4.56138V19.256C4.56138 20.5787 4.87071 21.6133 5.48938 22.36C6.10804 23.1067 7.07871 23.48 8.40138 23.48C9.72404 23.48 10.6947 23.1067 11.3134 22.36C11.932 21.6133 12.2414 20.5787 12.2414 19.256V4.6H16.4654ZM30.9711 0.599998L34.6191 1.752L25.0511 31L21.3711 29.848L30.9711 0.599998ZM44.3249 18.552V27H40.1009V4.6H48.8689C50.0209 4.6 51.0235 4.792 51.8769 5.176C52.7302 5.53867 53.4342 6.02933 53.9889 6.648C54.5649 7.24533 54.9915 7.93867 55.2689 8.728C55.5675 9.496 55.7169 10.2853 55.7169 11.096V11.864C55.7169 12.696 55.5675 13.5173 55.2689 14.328C54.9915 15.1173 54.5649 15.832 53.9889 16.472C53.4342 17.0907 52.7302 17.592 51.8769 17.976C51.0235 18.36 50.0209 18.552 48.8689 18.552H44.3249ZM44.3249 14.52H48.4529C49.3915 14.52 50.1275 14.264 50.6609 13.752C51.2155 13.24 51.4929 12.5787 51.4929 11.768V11.384C51.4929 10.5733 51.2155 9.912 50.6609 9.4C50.1275 8.888 49.3915 8.632 48.4529 8.632H44.3249V14.52ZM1.42538 36.6H9.71338C10.78 36.6 11.7187 36.7493 12.5294 37.048C13.3614 37.3467 14.0547 37.752 14.6094 38.264C15.1854 38.776 15.612 39.3947 15.8894 40.12C16.188 40.824 16.3374 41.592 16.3374 42.424V42.808C16.3374 44.088 15.9747 45.112 15.2494 45.88C14.5454 46.648 13.6494 47.1813 12.5614 47.48V48.056C13.6494 48.3547 14.5454 48.8987 15.2494 49.688C15.9747 50.456 16.3374 51.48 16.3374 52.76V53.144C16.3374 53.976 16.188 54.7547 15.8894 55.48C15.612 56.184 15.1854 56.8027 14.6094 57.336C14.0547 57.848 13.3614 58.2533 12.5294 58.552C11.7187 58.8507 10.78 59 9.71338 59H1.42538V36.6ZM5.64938 54.968H9.29738C10.1934 54.968 10.9187 54.776 11.4734 54.392C12.028 54.008 12.3054 53.368 12.3054 52.472V52.28C12.3054 51.384 12.028 50.744 11.4734 50.36C10.9187 49.976 10.1934 49.784 9.29738 49.784H5.64938V54.968ZM5.64938 45.752H9.29738C10.1934 45.752 10.9187 45.5707 11.4734 45.208C12.028 44.824 12.3054 44.184 12.3054 43.288V43.096C12.3054 42.2 12.028 41.5707 11.4734 41.208C10.9187 40.824 10.1934 40.632 9.29738 40.632H5.64938V45.752ZM30.9711 32.6L34.6191 33.752L25.0511 63L21.3711 61.848L30.9711 32.6ZM47.5889 59.448C46.3302 59.448 45.1995 59.2987 44.1969 59C43.1942 58.68 42.3409 58.2427 41.6369 57.688C40.9329 57.1333 40.3889 56.4827 40.0049 55.736C39.6209 54.968 39.4289 54.1147 39.4289 53.176V52.984C39.4289 52.1947 39.5355 51.5013 39.7489 50.904C39.9835 50.3067 40.2822 49.7947 40.6449 49.368C41.0289 48.9413 41.4555 48.5893 41.9249 48.312C42.3942 48.0347 42.8849 47.8213 43.3969 47.672V47.096C42.9489 46.9253 42.5115 46.7013 42.0849 46.424C41.6795 46.1467 41.3169 45.816 40.9969 45.432C40.6982 45.0267 40.4529 44.5573 40.2609 44.024C40.0902 43.4693 40.0049 42.8507 40.0049 42.168V41.976C40.0049 41.0587 40.2182 40.2373 40.6449 39.512C41.0715 38.7867 41.6369 38.1787 42.3409 37.688C43.0449 37.176 43.8449 36.792 44.7409 36.536C45.6582 36.28 46.6075 36.152 47.5889 36.152C48.5702 36.152 49.5089 36.28 50.4049 36.536C51.3222 36.792 52.1329 37.176 52.8369 37.688C53.5409 38.1787 54.1062 38.7867 54.5329 39.512C54.9595 40.2373 55.1729 41.0587 55.1729 41.976V42.168C55.1729 42.8507 55.0769 43.4693 54.8849 44.024C54.7142 44.5573 54.4689 45.0267 54.1489 45.432C53.8502 45.816 53.4875 46.1467 53.0609 46.424C52.6555 46.7013 52.2289 46.9253 51.7809 47.096V47.672C52.2929 47.8213 52.7835 48.0347 53.2529 48.312C53.7222 48.5893 54.1382 48.9413 54.5009 49.368C54.8849 49.7947 55.1835 50.3067 55.3969 50.904C55.6315 51.5013 55.7489 52.1947 55.7489 52.984V53.176C55.7489 54.1147 55.5569 54.968 55.1729 55.736C54.7889 56.504 54.2449 57.1653 53.5409 57.72C52.8369 58.2533 51.9729 58.68 50.9489 59C49.9462 59.2987 48.8262 59.448 47.5889 59.448ZM47.5889 55.416C48.8475 55.416 49.8182 55.1387 50.5009 54.584C51.1835 54.008 51.5249 53.2827 51.5249 52.408C51.5249 51.5333 51.1835 50.8187 50.5009 50.264C49.8182 49.688 48.8475 49.4 47.5889 49.4C46.3302 49.4 45.3595 49.688 44.6769 50.264C43.9942 50.8187 43.6529 51.5333 43.6529 52.408C43.6529 53.2827 43.9942 54.008 44.6769 54.584C45.3595 55.1387 46.3302 55.416 47.5889 55.416ZM47.5889 40.184C46.6289 40.184 45.8289 40.4293 45.1889 40.92C44.5489 41.4107 44.2289 42.0293 44.2289 42.776C44.2289 43.5227 44.5489 44.1413 45.1889 44.632C45.8289 45.1227 46.6289 45.368 47.5889 45.368C48.5489 45.368 49.3489 45.1227 49.9889 44.632C50.6289 44.1413 50.9489 43.5227 50.9489 42.776C50.9489 42.0293 50.6289 41.4107 49.9889 40.92C49.3489 40.4293 48.5489 40.184 47.5889 40.184Z" fill="#2C363F"/>
</svg>
